<svg xmlns="http://www.w3.org/2000/svg" xmlns:xlink="http://www.w3.org/1999/xlink" width="280"
     zoomAndPan="magnify" viewBox="0 0 210 60" height="80" preserveAspectRatio="xMidYMid meet"
     version="1.0">
    <defs>
        <g/>
    </defs>
    <g fill="#324370" fill-opacity="1">
        <g transform="translate(25.01953, 41.625)">
            <g>
                <path d="M 6.171875 -0.21875 C 3.992188 -0.90625 2.492188 -2.15625 1.671875 -3.96875 C 0.859375 -5.78125 0.78125 -8.125 1.4375 -11 C 2.101562 -13.882812 3.265625 -16.234375 4.921875 -18.046875 C 6.585938 -19.859375 8.671875 -21.109375 11.171875 -21.796875 Z M 13.796875 -17.0625 L 15.015625 -22.40625 L 15.9375 -22.40625 C 19.726562 -22.40625 22.4375 -21.429688 24.0625 -19.484375 C 25.6875 -17.546875 26.070312 -14.71875 25.21875 -11 C 24.363281 -7.289062 22.675781 -4.460938 20.15625 -2.515625 C 17.644531 -0.578125 14.488281 0.390625 10.6875 0.390625 C 10.257812 0.390625 9.953125 0.378906 9.765625 0.359375 L 10.96875 -4.953125 C 11.351562 -4.910156 11.664062 -4.890625 11.90625 -4.890625 C 13.414062 -4.890625 14.675781 -5.347656 15.6875 -6.265625 C 16.707031 -7.179688 17.398438 -8.421875 17.765625 -9.984375 L 18.203125 -12.03125 C 18.566406 -13.59375 18.453125 -14.832031 17.859375 -15.75 C 17.273438 -16.664062 16.226562 -17.125 14.71875 -17.125 C 14.488281 -17.125 14.179688 -17.101562 13.796875 -17.0625 Z M 13.796875 -17.0625 "/>
            </g>
        </g>
    </g>
    <g fill="#324370" fill-opacity="1">
        <g transform="translate(51.668985, 41.625)">
            <g>
                <path d="M 15.578125 -17.28125 C 14.410156 -17.28125 13.1875 -17.003906 11.90625 -16.453125 L 10.96875 -12.453125 C 11.226562 -12.535156 11.53125 -12.578125 11.875 -12.578125 C 12.570312 -12.578125 13.054688 -12.359375 13.328125 -11.921875 C 13.597656 -11.484375 13.644531 -10.898438 13.46875 -10.171875 L 11.140625 0 L 17.5 0 L 20.03125 -10.9375 C 20.5 -12.988281 20.363281 -14.554688 19.625 -15.640625 C 18.894531 -16.734375 17.546875 -17.28125 15.578125 -17.28125 Z M 8.640625 -9.984375 L 8.890625 -14.34375 L 9.09375 -16.890625 L 3.875 -16.890625 L -0.03125 0 L 6.328125 0 L 8.609375 -9.921875 Z M 8.640625 -9.984375 "/>
            </g>
        </g>
    </g>
    <g fill="#324370" fill-opacity="1">
        <g transform="translate(73.00774, 41.625)">
            <g>
                <path d="M 9.765625 -16.890625 L 5.859375 0 L -0.515625 0 L 3.390625 -16.890625 Z M 11.234375 -23.203125 L 10.234375 -18.875 L 3.875 -18.875 L 4.859375 -23.203125 Z M 11.234375 -23.203125 "/>
            </g>
        </g>
    </g>
    <g fill="#324370" fill-opacity="1">
        <g transform="translate(83.661125, 41.625)">
            <g>
                <path d="M 22.78125 -16.890625 L 14.96875 -8.796875 L 19.265625 0 L 11.84375 0 L 9.859375 -5.3125 L 9.734375 -5.3125 L 5.28125 0 L -1.796875 0 L 6.78125 -8.953125 L 2.75 -16.890625 L 10.234375 -16.890625 L 11.90625 -12.421875 L 12.03125 -12.421875 L 15.75 -16.890625 Z M 22.78125 -16.890625 "/>
            </g>
        </g>
    </g>
    <g fill="#324370" fill-opacity="1">
        <g transform="translate(104.999881, 41.625)">
            <g>
                <path d="M 12 -22.015625 L 6.9375 0 L -0.125 0 L 4.921875 -22.015625 Z M 14.625 -17.1875 L 15.71875 -22.015625 L 19.578125 -22.015625 C 21.285156 -22.015625 22.609375 -21.5 23.546875 -20.46875 C 24.484375 -19.445312 24.773438 -18.160156 24.421875 -16.609375 C 23.796875 -13.898438 22.171875 -12.191406 19.546875 -11.484375 L 19.546875 -11.359375 C 22.191406 -10.722656 23.164062 -8.890625 22.46875 -5.859375 C 22.0625 -4.128906 21.113281 -2.71875 19.625 -1.625 C 18.144531 -0.539062 16.507812 0 14.71875 0 L 10.65625 0 L 11.84375 -5.125 L 13.5 -5.125 C 13.800781 -5.125 14.085938 -5.195312 14.359375 -5.34375 C 14.640625 -5.488281 14.878906 -5.695312 15.078125 -5.96875 C 15.285156 -6.238281 15.429688 -6.53125 15.515625 -6.84375 L 15.578125 -7.171875 C 15.710938 -7.660156 15.65625 -8.066406 15.40625 -8.390625 C 15.164062 -8.722656 14.820312 -8.890625 14.375 -8.890625 L 12.703125 -8.890625 L 13.765625 -13.4375 L 14.90625 -13.4375 C 15.351562 -13.4375 15.773438 -13.601562 16.171875 -13.9375 C 16.566406 -14.269531 16.816406 -14.679688 16.921875 -15.171875 L 16.984375 -15.484375 C 17.097656 -15.953125 17.035156 -16.351562 16.796875 -16.6875 C 16.566406 -17.019531 16.226562 -17.1875 15.78125 -17.1875 Z M 14.625 -17.1875 "/>
            </g>
        </g>
    </g>
    <g fill="#324370" fill-opacity="1">
        <g transform="translate(129.88976, 41.625)">
            <g>
                <path d="M 22.296875 -16.890625 L 12.515625 -0.515625 C 12.429688 -0.378906 12.351562 -0.25 12.28125 -0.125 L 11.84375 -8.453125 L 16.03125 -16.890625 Z M 10.625 2.296875 C 9.507812 3.734375 8.285156 4.828125 6.953125 5.578125 C 5.617188 6.335938 4.066406 6.71875 2.296875 6.71875 C 0.910156 6.71875 -0.269531 6.523438 -1.25 6.140625 L -0.390625 2.34375 L 2.171875 2.34375 C 3.773438 2.34375 4.90625 1.5625 5.5625 0 L 2.75 -16.890625 L 9.59375 -16.890625 Z M 10.625 2.296875 "/>
            </g>
        </g>
    </g>
    <g fill="#324370" fill-opacity="1">
        <g transform="translate(149.436955, 41.625)">
            <g>
                <path d="M 12.1875 -22.015625 L 11.015625 -16.890625 L 14.59375 -16.890625 L 13.59375 -12.578125 L 10.015625 -12.578125 L 8.515625 -6.140625 C 8.316406 -5.421875 8.304688 -4.875 8.484375 -4.5 C 8.671875 -4.125 9.109375 -3.9375 9.796875 -3.9375 L 11.578125 -3.9375 L 10.71875 -0.1875 C 9.476562 0.195312 8.070312 0.390625 6.5 0.390625 C 4.644531 0.390625 3.285156 0.0507812 2.421875 -0.625 C 1.554688 -1.3125 1.316406 -2.476562 1.703125 -4.125 L 3.640625 -12.578125 L 1.28125 -12.578125 L 2.265625 -16.890625 L 4.890625 -16.890625 L 7.453125 -22.015625 Z M 12.1875 -22.015625 "/>
            </g>
        </g>
    </g>
    <g fill="#324370" fill-opacity="1">
        <g transform="translate(163.641464, 41.625)">
            <g>
                <path d="M 12.703125 -17.28125 C 19.054688 -17.28125 21.550781 -14.335938 20.1875 -8.453125 L 19.9375 -7.359375 L 9.0625 -7.359375 L 9.765625 -10.375 L 14.203125 -10.375 C 14.398438 -11.25 14.304688 -11.941406 13.921875 -12.453125 C 13.535156 -12.960938 12.894531 -13.21875 12 -13.21875 C 11.425781 -13.21875 10.882812 -13.128906 10.375 -12.953125 L 11.328125 -17.21875 C 11.941406 -17.257812 12.398438 -17.28125 12.703125 -17.28125 Z M 9.46875 -16.953125 L 7.265625 -7.359375 C 6.710938 -4.910156 7.566406 -3.6875 9.828125 -3.6875 C 10.890625 -3.6875 11.71875 -3.910156 12.3125 -4.359375 C 12.914062 -4.804688 13.300781 -5.398438 13.46875 -6.140625 L 19.640625 -6.140625 C 19.171875 -4.097656 18.023438 -2.5 16.203125 -1.34375 C 14.378906 -0.1875 11.972656 0.390625 8.984375 0.390625 C 5.847656 0.390625 3.585938 -0.335938 2.203125 -1.796875 C 0.816406 -3.265625 0.46875 -5.484375 1.15625 -8.453125 C 1.6875 -10.773438 2.675781 -12.65625 4.125 -14.09375 C 5.570312 -15.53125 7.351562 -16.484375 9.46875 -16.953125 Z M 9.46875 -16.953125 "/>
            </g>
        </g>
    </g>
</svg>