<svg xmlns="http://www.w3.org/2000/svg" xmlns:xlink="http://www.w3.org/1999/xlink" width="280"
     zoomAndPan="magnify" viewBox="0 0 210 60" height="80" preserveAspectRatio="xMidYMid meet"
     version="1.0">
    <defs>
        <g/>
    </defs>
    <rect x="-21" width="252" fill="#ffffff" y="-6" height="72" fill-opacity="1"/>
    <rect x="-21" width="252" fill="#324370" y="-6" height="72" fill-opacity="1"/>
    <g fill="#ffffff" fill-opacity="1">
        <g transform="translate(6.250132, 44.352154)">
            <g>
                <path d="M 7.625 -0.28125 C 4.9375 -1.125 3.082031 -2.660156 2.0625 -4.890625 C 1.050781 -7.128906 0.953125 -10.023438 1.765625 -13.578125 C 2.585938 -17.140625 4.023438 -20.039062 6.078125 -22.28125 C 8.128906 -24.519531 10.695312 -26.0625 13.78125 -26.90625 Z M 17.03125 -21.046875 L 18.53125 -27.65625 L 19.671875 -27.65625 C 24.359375 -27.65625 27.703125 -26.457031 29.703125 -24.0625 C 31.703125 -21.664062 32.175781 -18.175781 31.125 -13.59375 C 30.070312 -9.007812 27.988281 -5.519531 24.875 -3.125 C 21.769531 -0.726562 17.875 0.46875 13.1875 0.46875 C 12.664062 0.46875 12.285156 0.457031 12.046875 0.4375 L 13.546875 -6.125 C 14.023438 -6.070312 14.40625 -6.046875 14.6875 -6.046875 C 16.5625 -6.046875 18.125 -6.609375 19.375 -7.734375 C 20.625 -8.867188 21.472656 -10.398438 21.921875 -12.328125 L 22.46875 -14.859375 C 22.914062 -16.773438 22.773438 -18.296875 22.046875 -19.421875 C 21.328125 -20.554688 20.035156 -21.125 18.171875 -21.125 C 17.878906 -21.125 17.5 -21.097656 17.03125 -21.046875 Z M 17.03125 -21.046875 "/>
            </g>
        </g>
    </g>
    <g fill="#ffffff" fill-opacity="1">
        <g transform="translate(39.151387, 44.352154)">
            <g>
                <path d="M 19.25 -21.328125 C 17.800781 -21.328125 16.285156 -20.984375 14.703125 -20.296875 L 13.5625 -15.359375 C 13.875 -15.472656 14.238281 -15.53125 14.65625 -15.53125 C 15.53125 -15.53125 16.128906 -15.257812 16.453125 -14.71875 C 16.785156 -14.175781 16.847656 -13.457031 16.640625 -12.5625 L 13.75 0 L 21.609375 0 L 24.734375 -13.515625 C 25.316406 -16.035156 25.148438 -17.96875 24.234375 -19.3125 C 23.328125 -20.65625 21.664062 -21.328125 19.25 -21.328125 Z M 10.671875 -12.328125 L 10.984375 -17.703125 L 11.21875 -20.859375 L 4.78125 -20.859375 L -0.03125 0 L 7.828125 0 L 10.640625 -12.25 Z M 10.671875 -12.328125 "/>
            </g>
        </g>
    </g>
    <g fill="#ffffff" fill-opacity="1">
        <g transform="translate(65.496086, 44.352154)">
            <g>
                <path d="M 12.0625 -20.859375 L 7.234375 0 L -0.625 0 L 4.1875 -20.859375 Z M 13.875 -28.640625 L 12.640625 -23.3125 L 4.78125 -23.3125 L 6.015625 -28.640625 Z M 13.875 -28.640625 "/>
            </g>
        </g>
    </g>
    <g fill="#ffffff" fill-opacity="1">
        <g transform="translate(78.64869, 44.352154)">
            <g>
                <path d="M 28.125 -20.859375 L 18.5 -10.859375 L 23.78125 0 L 14.625 0 L 12.171875 -6.5625 L 12.015625 -6.5625 L 6.53125 0 L -2.203125 0 L 8.375 -11.0625 L 3.40625 -20.859375 L 12.640625 -20.859375 L 14.703125 -15.328125 L 14.859375 -15.328125 L 19.4375 -20.859375 Z M 28.125 -20.859375 "/>
            </g>
        </g>
    </g>
    <g fill="#ffffff" fill-opacity="1">
        <g transform="translate(104.993388, 44.352154)">
            <g>
                <path d="M 14.8125 -27.171875 L 8.578125 0 L -0.15625 0 L 6.09375 -27.171875 Z M 18.0625 -21.21875 L 19.40625 -27.171875 L 24.1875 -27.171875 C 26.289062 -27.171875 27.921875 -26.539062 29.078125 -25.28125 C 30.234375 -24.019531 30.585938 -22.425781 30.140625 -20.5 C 29.378906 -17.15625 27.378906 -15.050781 24.140625 -14.1875 L 24.140625 -14.015625 C 27.410156 -13.234375 28.609375 -10.972656 27.734375 -7.234375 C 27.234375 -5.097656 26.066406 -3.359375 24.234375 -2.015625 C 22.410156 -0.671875 20.390625 0 18.171875 0 L 13.15625 0 L 14.625 -6.3125 L 16.671875 -6.3125 C 17.046875 -6.3125 17.398438 -6.40625 17.734375 -6.59375 C 18.078125 -6.78125 18.375 -7.035156 18.625 -7.359375 C 18.875 -7.691406 19.054688 -8.054688 19.171875 -8.453125 L 19.25 -8.84375 C 19.40625 -9.445312 19.332031 -9.953125 19.03125 -10.359375 C 18.726562 -10.773438 18.300781 -10.984375 17.75 -10.984375 L 15.6875 -10.984375 L 17 -16.59375 L 18.421875 -16.59375 C 18.972656 -16.59375 19.488281 -16.796875 19.96875 -17.203125 C 20.457031 -17.609375 20.769531 -18.113281 20.90625 -18.71875 L 20.984375 -19.125 C 21.109375 -19.695312 21.023438 -20.1875 20.734375 -20.59375 C 20.453125 -21.007812 20.035156 -21.21875 19.484375 -21.21875 Z M 18.0625 -21.21875 "/>
            </g>
        </g>
    </g>
    <g fill="#ffffff" fill-opacity="1">
        <g transform="translate(135.722284, 44.352154)">
            <g>
                <path d="M 27.53125 -20.859375 L 15.453125 -0.625 C 15.347656 -0.46875 15.253906 -0.3125 15.171875 -0.15625 L 14.625 -10.421875 L 19.796875 -20.859375 Z M 13.125 2.84375 C 11.75 4.601562 10.238281 5.953125 8.59375 6.890625 C 6.945312 7.828125 5.03125 8.296875 2.84375 8.296875 C 1.132812 8.296875 -0.320312 8.054688 -1.53125 7.578125 L -0.46875 2.890625 L 2.6875 2.890625 C 4.664062 2.890625 6.0625 1.925781 6.875 0 L 3.40625 -20.859375 L 11.859375 -20.859375 Z M 13.125 2.84375 "/>
            </g>
        </g>
    </g>
    <g fill="#ffffff" fill-opacity="1">
        <g transform="translate(159.855132, 44.352154)">
            <g>
                <path d="M 15.046875 -27.171875 L 13.59375 -20.859375 L 18.015625 -20.859375 L 16.78125 -15.53125 L 12.359375 -15.53125 L 10.5 -7.578125 C 10.269531 -6.679688 10.265625 -6.003906 10.484375 -5.546875 C 10.710938 -5.085938 11.25 -4.859375 12.09375 -4.859375 L 14.296875 -4.859375 L 13.234375 -0.234375 C 11.703125 0.234375 9.960938 0.46875 8.015625 0.46875 C 5.722656 0.46875 4.039062 0.0507812 2.96875 -0.78125 C 1.90625 -1.625 1.613281 -3.0625 2.09375 -5.09375 L 4.5 -15.53125 L 1.578125 -15.53125 L 2.796875 -20.859375 L 6.046875 -20.859375 L 9.203125 -27.171875 Z M 15.046875 -27.171875 "/>
            </g>
        </g>
    </g>
    <g fill="#ffffff" fill-opacity="1">
        <g transform="translate(177.391932, 44.352154)">
            <g>
                <path d="M 15.6875 -21.328125 C 23.53125 -21.328125 26.609375 -17.691406 24.921875 -10.421875 L 24.609375 -9.078125 L 11.171875 -9.078125 L 12.046875 -12.796875 L 17.53125 -12.796875 C 17.769531 -13.878906 17.648438 -14.734375 17.171875 -15.359375 C 16.703125 -15.992188 15.914062 -16.3125 14.8125 -16.3125 C 14.101562 -16.3125 13.429688 -16.207031 12.796875 -16 L 13.984375 -21.25 C 14.742188 -21.300781 15.3125 -21.328125 15.6875 -21.328125 Z M 11.6875 -20.9375 L 8.96875 -9.078125 C 8.28125 -6.054688 9.332031 -4.546875 12.125 -4.546875 C 13.4375 -4.546875 14.460938 -4.820312 15.203125 -5.375 C 15.941406 -5.925781 16.414062 -6.660156 16.625 -7.578125 L 24.25 -7.578125 C 23.675781 -5.054688 22.257812 -3.082031 20 -1.65625 C 17.75 -0.238281 14.78125 0.46875 11.09375 0.46875 C 7.226562 0.46875 4.4375 -0.429688 2.71875 -2.234375 C 1.007812 -4.035156 0.578125 -6.765625 1.421875 -10.421875 C 2.078125 -13.296875 3.300781 -15.617188 5.09375 -17.390625 C 6.882812 -19.171875 9.082031 -20.351562 11.6875 -20.9375 Z M 11.6875 -20.9375 "/>
            </g>
        </g>
    </g>
</svg>